<svg xmlns="http://www.w3.org/2000/svg" width="32" height="33" viewBox="0 0 32 33">
    <g fill="none" fill-rule="evenodd">
        <g>
            <g>
                <g>
                    <g transform="translate(-24 -79) translate(24 79)">
                        <rect width="32" height="32" rx="16"/>
                        <path fill="#8A8A8F" d="M22.2 19.8c.442 0 .8.358.8.8 0 .442-.358.8-.8.8H9.8c-.442 0-.8-.358-.8-.8 0-.442.358-.8.8-.8h12.4zm0-4.6c.442 0 .8.358.8.8 0 .442-.358.8-.8.8H9.8c-.442 0-.8-.358-.8-.8 0-.442.358-.8.8-.8h12.4zm0-4.6c.442 0 .8.358.8.8 0 .442-.358.8-.8.8H9.8c-.442 0-.8-.358-.8-.8 0-.442.358-.8.8-.8h12.4z"/>
                    </g>
                </g>
            </g>
        </g>
    </g>
</svg>
