<svg xmlns="http://www.w3.org/2000/svg" width="32" height="33" viewBox="0 0 32 33">
    <g fill="none" fill-rule="evenodd">
        <g>
            <g>
                <g>
                    <g transform="translate(-24 -156) translate(24 156)">
                        <rect width="32" height="32" rx="16"/>
                        <path fill="#675AE7" d="M16 7.22l9.76 7.986c.385.315.441.882.127 1.266-.123.15-.29.257-.479.304l-2.583.646v6.053c0 .608-.492 1.1-1.1 1.1H19.15c-.467 0-.866-.29-1.026-.701l.026.001c-.22 0-.4-.18-.4-.4V20.8c0-.105-.016-.206-.046-.3h-3.408c-.03.094-.046.195-.046.3v2.675c0 .213-.166.387-.375.4-.16.41-.558.7-1.025.7h-2.575c-.608 0-1.1-.492-1.1-1.1v-6.053l-2.583-.646c-.483-.12-.776-.61-.655-1.092.047-.188.153-.355.303-.478L16 7.221z"/>
                    </g>
                </g>
            </g>
        </g>
    </g>
</svg>
