<svg xmlns="http://www.w3.org/2000/svg" width="32" height="32" viewBox="0 0 32 32">
    <g fill="none" fill-rule="evenodd">
        <g>
            <g>
                <g>
                    <g transform="translate(-92 -30) translate(0 22) translate(92 8)">
                        <rect width="32" height="32" rx="16"/>
                        <path fill="#8A8A8F" d="M6.592 16.776c-.483-.12-.776-.61-.655-1.092.047-.188.153-.355.303-.478L16 7.221l9.76 7.985c.385.315.441.882.127 1.266-.123.15-.29.257-.479.304l-2.583.646v6.053c0 .608-.492 1.1-1.1 1.1H18.15c-.608 0-1.1-.492-1.1-1.1V20.8c0-.166-.134-.3-.3-.3h-1.5c-.166 0-.3.134-.3.3v2.675c0 .608-.492 1.1-1.1 1.1h-3.575c-.608 0-1.1-.492-1.1-1.1v-6.053l-2.583-.646zM16 9.029l-8.103 6.63 2.678.67v6.846h2.975V20.8c0-.939.761-1.7 1.7-1.7h1.5c.939 0 1.7.761 1.7 1.7v2.375h2.975v-6.847l2.678-.669L16 9.029z"/>
                    </g>
                </g>
            </g>
        </g>
    </g>
</svg>
