<svg xmlns="http://www.w3.org/2000/svg" width="32" height="32" viewBox="0 0 32 32">
    <g fill="none" fill-rule="evenodd">
        <g>
            <g>
                <g>
                    <g>
                        <g>
                            <g transform="translate(-16.000000, -223.000000) translate(0.000000, 56.000000) translate(0.000000, 154.000000) translate(0.000000, 1.000000) translate(16.000000, 12.000000)">
                                <rect width="32" height="32" rx="16"/>
                                <path fill="#515154" d="M10.694 17.481c.412-.159.875.046 1.034.458.16.412-.045.876-.457 1.035l-.726.28c-1.202.465-2.029 1.332-2.254 2.311l-.31 1.347h16.038l-.31-1.347c-.225-.98-1.052-1.846-2.254-2.31l-.72-.279c-.412-.16-.617-.622-.457-1.035.159-.412.622-.617 1.034-.457l.72.278c1.673.647 2.885 1.917 3.237 3.444l.405 1.76c.175.761-.394 1.42-1.147 1.53-.074.01-.15.016-.225.016H7.698c-.74 0-1.402-.528-1.402-1.28 0-.09.01-.179.03-.266l.405-1.76c.352-1.527 1.564-2.797 3.237-3.444zM16.22 6.62c2.512 0 4.548 2.036 4.548 4.548v.973c0 1.748-.826 3.394-2.228 4.438-1.507 1.123-3.573 1.123-5.08 0-1.402-1.044-2.228-2.69-2.228-4.438v-.973c0-2.512 2.036-4.548 4.548-4.548h.44zm0 1.6h-.44c-1.628 0-2.948 1.32-2.948 2.948v.973c0 1.243.587 2.413 1.584 3.155.94.7 2.228.7 3.168 0 .997-.742 1.584-1.912 1.584-3.155v-.973c0-1.628-1.32-2.948-2.948-2.948z"/>
                            </g>
                        </g>
                    </g>
                </g>
            </g>
        </g>
    </g>
</svg>
