<svg xmlns="http://www.w3.org/2000/svg" width="32" height="32" viewBox="0 0 32 32">
    <g fill="none" fill-rule="evenodd">
        <g>
            <g>
                <g>
                    <g>
                        <g transform="translate(-20.000000, -586.000000) translate(0.000000, 578.000000) translate(20.000000, 8.000000)">
                            <rect width="32" height="32" rx="16"/>
                            <path fill="#F07400" d="M22 19.6c.552 0 1 .448 1 1v.4c0 .552-.448 1-1 1H10c-.552 0-1-.448-1-1v-.4c0-.552.448-1 1-1h12zm0-4.8c.552 0 1 .448 1 1v.4c0 .552-.448 1-1 1H10c-.552 0-1-.448-1-1v-.4c0-.552.448-1 1-1h12zm0-4.8c.552 0 1 .448 1 1v.4c0 .552-.448 1-1 1H10c-.552 0-1-.448-1-1V11c0-.552.448-1 1-1h12z"/>
                        </g>
                    </g>
                </g>
            </g>
        </g>
    </g>
</svg>
